<svg xmlns="http://www.w3.org/2000/svg" viewBox="0 0 363 363">
  <defs>
    <style>
      .cls-1 {
        fill: #4b4b4b;
      }

      .cls-2 {
        fill: none;
      }
    </style>
  </defs>
  <g id="Group_1" data-name="Group 1" transform="translate(-6 -165)">
    <g id="new" transform="translate(-63.595 91)">
      <path id="Path_4" data-name="Path 4" class="cls-1" d="M196.151,226.3l-13.784,2.709a1.181,1.181,0,0,0-.979,1.463l10.254,52.175-.6.124-39.528-46.423a2.291,2.291,0,0,0-2.3-.816l-14.636,2.88a1.156,1.156,0,0,0-.966,1.455l15.817,80.448a1.171,1.171,0,0,0,1.45.992l13.783-2.71a1.192,1.192,0,0,0,.983-1.469L155.4,265.075l.61-.118,39.613,46.28a2.209,2.209,0,0,0,2.318.816l14.509-2.86a1.164,1.164,0,0,0,.966-1.463L197.6,227.276A1.167,1.167,0,0,0,196.151,226.3Z"/>
      <path id="Path_5" data-name="Path 5" class="cls-1" d="M280.868,279.649l-35.731,7.026a.64.64,0,0,1-.865-.581L240.887,268.9a.657.657,0,0,1,.581-.874l29.757-5.85a1.174,1.174,0,0,0,.983-1.449l-2.546-12.922a1.184,1.184,0,0,0-1.453-.986l-29.754,5.857a.673.673,0,0,1-.881-.594l-3.232-16.454a.656.656,0,0,1,.584-.875l35.731-7.026a1.159,1.159,0,0,0,.966-1.456l-2.56-13.038a1.17,1.17,0,0,0-1.453-.986L214.458,222.7a1.17,1.17,0,0,0-.982,1.462l15.817,80.454a1.181,1.181,0,0,0,1.465.98l53.152-10.454a1.16,1.16,0,0,0,.97-1.456l-2.563-13.046A1.174,1.174,0,0,0,280.868,279.649Z"/>
      <path id="Path_6" data-name="Path 6" class="cls-1" d="M377.221,190.694l-15.605,3.068a1.318,1.318,0,0,0-1.224,1.515l-1.221,54.291-.258.046-24.847-49.16a1.579,1.579,0,0,0-1.708-.94l-10.61,2.083a1.615,1.615,0,0,0-1.338,1.541l-3.911,54.82-.242.052-22.19-49.7a1.363,1.363,0,0,0-1.691-.927l-15.732,3.082c-.852.17-1,.706-.725,1.417l37.266,76.23a1.6,1.6,0,0,0,1.708.94l12.19-2.4a1.606,1.606,0,0,0,1.348-1.528L332.8,230.7l.242-.045,24.521,48.728a1.6,1.6,0,0,0,1.822.914l12.19-2.4a1.522,1.522,0,0,0,1.352-1.535l5.5-84.645C378.4,190.955,378.073,190.524,377.221,190.694Z"/>
    </g>
    <circle id="Ellipse_1" data-name="Ellipse 1" class="cls-2" cx="181.5" cy="181.5" r="181.5" transform="translate(6 165)"/>
  </g>
</svg>
