<svg xmlns="http://www.w3.org/2000/svg" viewBox="0 0 300 300">
  <defs>
    <style>
      .cls-1 {
        fill: #fff;
      }

      .cls-2 {
        fill: none;
      }
    </style>
  </defs>
  <g id="Twitter_Social_Icon_Rounded_Square_Color" transform="translate(56 78)">
    <g id="Logo__x2014__FIXED" transform="translate(-125.959 -143.679)">
      <path id="Path_2" data-name="Path 2" class="cls-1" d="M165.838,333.279c109,0,168.646-90.391,168.646-168.646,0-2.543,0-5.086-.116-7.629a120.754,120.754,0,0,0,29.591-30.747,120.129,120.129,0,0,1-34.1,9.363,59.635,59.635,0,0,0,26.123-32.828A117.9,117.9,0,0,1,318.3,117.126,59.288,59.288,0,0,0,215.773,157.7a65.513,65.513,0,0,0,1.5,13.524A168.314,168.314,0,0,1,95.1,109.265a59.511,59.511,0,0,0,18.379,79.179,59.953,59.953,0,0,1-26.817-7.4v.809A59.4,59.4,0,0,0,134.167,240a59.617,59.617,0,0,1-26.7,1.04,59.27,59.27,0,0,0,55.368,41.15A118.881,118.881,0,0,1,89.2,307.618a114.064,114.064,0,0,1-14.1-.809,168.6,168.6,0,0,0,90.738,26.47"/>
    </g>
    <rect id="Rectangle_1" data-name="Rectangle 1" class="cls-2" width="300" height="300" transform="translate(-56 -78)"/>
  </g>
</svg>
